<?xml version="1.0" standalone="no"?>
<!DOCTYPE svg PUBLIC "-//W3C//DTD SVG 1.1//EN" "http://www.w3.org/Graphics/SVG/1.1/DTD/svg11.dtd" >
<svg xmlns="http://www.w3.org/2000/svg" xmlns:xlink="http://www.w3.org/1999/xlink" version="1.1">
<metadata></metadata>
<defs>
<font id="bellezaregular" horiz-adv-x="500" >
<font-face units-per-em="1000" ascent="800" descent="-200" />
<missing-glyph horiz-adv-x="250" />
<glyph unicode="fi" horiz-adv-x="566" d="M308 452v-36h-121v-416h-84v416l-82 16v20h83q6 106 56.5 173t136.5 67q28 0 76 -12l-10 -65q-22 12 -56.5 21t-52.5 9q-34 -17 -49.5 -76t-17.5 -117h121zM408 0v452h83v-452h-83zM412.5 628q14.5 15 36 15t37 -15t15.5 -36t-15.5 -37t-36.5 -16t-36 15.5t-15 37 t14.5 36.5z" />
<glyph unicode="fl" horiz-adv-x="532" d="M457 0h-84v625q-56 20 -119 20q-34 -17 -49.5 -76t-17.5 -117h121v-36h-121v-416h-84v416l-82 16v20h83q6 106 56.5 173t136.5 67q43 0 76 -22l84 13v-683z" />
<glyph unicode="&#xd;" horiz-adv-x="333" />
<glyph unicode=" "  horiz-adv-x="250" />
<glyph unicode="&#x09;" horiz-adv-x="250" />
<glyph unicode="&#xa0;" horiz-adv-x="250" />
<glyph unicode="!" horiz-adv-x="333" d="M165 158l-30 495h95l-30 -495h-35zM220 4q-17 -13 -37.5 -13t-37.5 12.5t-17 37t16 40t38.5 15.5t38.5 -16t16 -39.5t-17 -36.5z" />
<glyph unicode="&#x22;" horiz-adv-x="350" d="M50 677h81v-70l-29 -176h-24l-28 176v70zM219 677h81v-70l-29 -176h-24l-28 176v70z" />
<glyph unicode="#" d="M471 271v-55h-109l-31 -216h-58l31 216h-134l-33 -216h-58l33 216h-107v55h116l21 134h-110v55h118l31 202h58l-31 -202h133l30 202h58l-30 -202h97v-55h-105l-20 -134h100zM333 405h-133l-21 -134h134z" />
<glyph unicode="$" d="M264 733v-64q87 0 168 -33l-10 -66q-88 52 -158 61v-234q7 -5 31.5 -20.5t33.5 -21.5t29.5 -21t29.5 -25t23 -26.5t21 -30.5q16 -37 16 -74q0 -75 -47.5 -125t-136.5 -57v-83h-34v81q-86 1 -172 39v47q31 -18 81 -34.5t91 -16.5v272q-103 61 -133 102q-35 48 -35 108.5 t41 106.5t127 51v64h34zM153 531q0 -57 77 -111v207q-38 -9 -57.5 -37t-19.5 -59zM331 76.5q24 32.5 24 76t-23.5 71t-67.5 56.5v-247q43 11 67 43.5z" />
<glyph unicode="%" horiz-adv-x="799" d="M90 633q50 51 110 51t99 -50t39 -146t-49.5 -146.5t-110.5 -50.5t-99.5 49t-38.5 145.5t50 147.5zM242 592.5q-23 45.5 -57.5 45.5t-54.5 -41t-20 -107.5t22.5 -111t54.5 -44.5q78 0 78 151q0 62 -23 107.5zM511 332q50 51 110 51t99 -50t39 -146t-49.5 -146.5 t-110.5 -50.5t-99.5 49t-38.5 145.5t50 147.5zM663 291.5q-23 45.5 -57.5 45.5t-54.5 -41t-20 -107.5t22.5 -111t54.5 -44.5q78 0 78 151q0 62 -23 107.5zM599 677l-350 -691h-49l353 691h46z" />
<glyph unicode="&#x26;" horiz-adv-x="778" d="M250 -13q-70 0 -134 37q-33 19 -53.5 56.5t-20.5 87.5q0 66 50.5 115.5t153.5 66.5q-38 85 -38 156q0 43 26 98q15 31 51 52t74 21t81 -8t65 -18l-10 -63q-64 48 -158 48q-48 -31 -48 -111t49 -183t132 -186q35 57 72 174q-26 0 -37 1v31q101 3 170 22l-17 -50 q-18 -3 -69 -5q-40 -122 -92 -199q114 -99 234 -99l-43 -31q-118 0 -230 81q-87 -94 -208 -94zM279 34q87 0 152 68q-107 88 -171 216q-68 -19 -99.5 -60.5t-31.5 -89.5q0 -69 42.5 -101.5t107.5 -32.5z" />
<glyph unicode="'" horiz-adv-x="181" d="M50 677h81v-70l-29 -176h-24l-28 176v70z" />
<glyph unicode="(" horiz-adv-x="333" d="M126 251q0 -118 21.5 -199t52 -123.5t84.5 -87.5l-2 -17q-234 132 -234 427t234 426l2 -16q-54 -46 -84.5 -88t-52 -123t-21.5 -199z" />
<glyph unicode=")" horiz-adv-x="333" d="M207 249q0 118 -21.5 199t-52 123.5t-84.5 87.5l2 17q234 -132 234 -427.5t-234 -425.5l-2 16q54 46 84.5 88t52 123t21.5 199z" />
<glyph unicode="*" horiz-adv-x="507" d="M300 292h-80v60l22 93l-70 -65l-52 -30l-40 69l52 30l91 28l-91 28l-52 30l40 69l52 -30l69 -65l-21 93v60h80v-60l-22 -93l70 65l52 30l40 -69l-52 -30l-91 -28l91 -28l52 -30l-40 -69l-52 30l-70 65l22 -93v-60z" />
<glyph unicode="+" horiz-adv-x="564" d="M253 282v195h58v-195h194v-58h-194v-195h-58v195h-194v58h194z" />
<glyph unicode="," horiz-adv-x="235" d="M175 28q0 -108 -112 -170l-12 19q67 53 67 119q-23 0 -42.5 15t-19.5 40q14 21 45 37.5t60 19.5q14 -41 14 -80z" />
<glyph unicode="-" horiz-adv-x="333" d="M39 257h246v-63h-246v63z" />
<glyph unicode="." horiz-adv-x="250" d="M70 44q0 23 16 39.5t39 16.5t39.5 -16.5t16.5 -39.5t-16.5 -39t-39.5 -16t-39 16t-16 39z" />
<glyph unicode="/" horiz-adv-x="278" d="M287 677l-228 -691h-68l229 691h67z" />
<glyph unicode="0" d="M414.5 504.5q57.5 -72.5 57.5 -203.5q0 -84 -23 -147.5t-60 -97.5q-72 -68 -160 -68t-145.5 75t-57.5 206q0 84 23 146.5t60 96.5q72 65 160 65t145.5 -72.5zM340 455.5q-39 70.5 -98.5 70.5t-93.5 -64t-34 -173t38.5 -181.5t93.5 -72.5q133 0 133 248q0 102 -39 172.5z " />
<glyph unicode="1" d="M298 580v-527l142 10v-63h-369v63l142 -10v437l-134 -69l-34 58l249 101h4z" />
<glyph unicode="2" d="M431 408q0 -51 -53 -124q-91 -125 -238 -226v-6l304 15v-67h-388v48q103 63 195.5 169.5t92.5 190t-82 116.5q-71 0 -163 -28l-20 63q68 21 143 21q112 0 160.5 -49.5t48.5 -122.5z" />
<glyph unicode="3" d="M357 -55.5q-73 -52.5 -160 -52.5t-177 29l20 64q83 -40 140 -51q64 0 108.5 40t44.5 107t-52 110.5t-162 43.5l-1 27q187 12 187 144q0 85 -89 118q-62 0 -154 -28l-20 63q70 21 134 21q97 0 158.5 -45t61.5 -124q0 -51 -37.5 -92.5t-101.5 -63.5q84 -17 128.5 -62 t44.5 -101q0 -95 -73 -147.5z" />
<glyph unicode="4" d="M484 132v-63h-114v-169h-84v169h-287v43l287 450h84v-430h114zM286 132v367l-229 -367h229z" />
<glyph unicode="5" d="M20 -84l20 64q65 -31 140 -46q64 0 107 35t43 102t-56.5 116t-178.5 49h-30l16 326h331l-10 -67l-243 15l-12 -249q138 -6 208.5 -59t70.5 -129q0 -49 -23.5 -86t-60.5 -57q-73 -38 -160 -38t-162 24z" />
<glyph unicode="6" d="M135 314q52 68 137.5 68t136 -52.5t50.5 -138.5q0 -55 -19 -96t-51 -63q-62 -44 -141 -44q-100 0 -154 86.5t-54 219.5q0 173 86.5 277t190.5 104q52 0 122 -20l-20 -64q-92 29 -144 29q-62 -24 -102 -109.5t-44 -196.5h6zM161.5 104.5q32.5 -72.5 83.5 -72.5t85 45 t34 110q0 128 -107 149q-35 -4 -66.5 -18.5t-46.5 -28t-15 -18.5q0 -94 32.5 -166.5z" />
<glyph unicode="7" d="M449 562v-46l-260 -624l-80 33l271 588l-329 -18l-10 67h408z" />
<glyph unicode="8" d="M164.5 247.5q-22.5 -41.5 -22.5 -91.5t34 -87t79 -37t74.5 28t29.5 74t-27.5 78.5t-116.5 101.5q-28 -25 -50.5 -66.5zM56 148q0 32 6.5 55t26.5 46.5t37.5 38t59.5 46.5q-52 46 -72 66t-36 52t-16 71q0 71 57.5 111.5t134.5 40.5t123.5 -39.5t46.5 -99.5q0 -66 -48 -106 q-33 -28 -86 -57q93 -67 124 -116t31 -105q0 -42 -18 -72.5t-39 -48.5t-58 -30.5t-84 -12.5q-88 0 -139 48.5t-51 111.5zM145 548q0 -81 113 -160q33 24 59.5 64t26.5 83t-30 70t-71.5 27t-69.5 -24.5t-28 -59.5z" />
<glyph unicode="9" d="M357 254q-52 -68 -137.5 -68t-136 52.5t-50.5 138.5q0 55 19 96t51 63q62 44 141 44q100 0 154 -86.5t54 -219.5q0 -173 -86.5 -277t-190.5 -104q-60 0 -132 23l20 64q101 -32 154 -32q62 24 102 109.5t44 196.5h-6zM330.5 463.5q-32.5 72.5 -83.5 72.5t-85 -45t-34 -110 q0 -128 107 -149q35 4 66.5 18.5t46.5 28t15 18.5q0 94 -32.5 166.5z" />
<glyph unicode=":" horiz-adv-x="211" d="M50 44q0 23 16 39.5t39 16.5t39.5 -16.5t16.5 -39.5t-16.5 -39t-39.5 -16t-39 16t-16 39zM50 403q0 23 16 39.5t39 16.5t39.5 -16.5t16.5 -39.5t-16.5 -39t-39.5 -16t-39 16t-16 39z" />
<glyph unicode=";" horiz-adv-x="211" d="M169 28q0 -108 -112 -170l-12 19q67 53 67 119q-23 0 -42.5 15t-19.5 40q14 21 45 37.5t60 19.5q14 -41 14 -80zM50 403q0 23 16 39.5t39 16.5t39.5 -16.5t16.5 -39.5t-16.5 -39t-39.5 -16t-39 16t-16 39z" />
<glyph unicode="&#x3c;" horiz-adv-x="564" d="M507 82v-60l-450 204v54l450 204v-60l-377 -171z" />
<glyph unicode="=" horiz-adv-x="564" d="M505 371v-59h-446v59h446zM505 194v-59h-446v59h446z" />
<glyph unicode="&#x3e;" horiz-adv-x="564" d="M57 82l377 171l-377 171v60l450 -204v-54l-450 -204v60z" />
<glyph unicode="?" horiz-adv-x="444" d="M172 82.5q16 15.5 38.5 15.5t38.5 -16t16 -39.5t-17 -37t-37 -13.5t-37.5 13t-17.5 37.5t16 40zM207 655q112 0 160.5 -49.5t48.5 -118t-58.5 -156t-141.5 -171.5l-29 23q65 70 105.5 148.5t40.5 142.5q0 91 -86 125q-68 0 -143 -22v63q58 15 103 15z" />
<glyph unicode="@" horiz-adv-x="971" d="M711 49q-27 -9 -57 -9t-56 26.5t-29 65.5h-4q-20 -41 -52.5 -64t-66.5 -23q-61 0 -94 51.5t-33 133t48.5 157t134.5 75.5q51 0 107 -41l35 33h32l-46 -284q-2 -16 -2 -24q0 -65 57 -65q48 0 98 62t50 181t-100.5 211t-235 92t-231.5 -106.5t-97 -258.5t97 -258.5 t238 -106.5q98 0 183 56l27 -37q-92 -53 -219 -53q-172 0 -294 116.5t-122 281.5t122 281.5t286.5 116.5t274.5 -103t110 -239q0 -58 -15 -106.5t-38 -79t-52 -52t-56 -30.5zM505 412q-43 0 -75.5 -50.5t-32.5 -129.5q0 -117 64 -135q27 2 62.5 30t38.5 44l35 212 q-36 29 -92 29z" />
<glyph unicode="A" horiz-adv-x="629" d="M10 0l297 678h15l297 -678h-109l-75 180h-297l-74 -180h-54zM153 218h266l-132 324z" />
<glyph unicode="B" horiz-adv-x="644" d="M90 0v662h189q115 0 183 -39t68 -117q0 -55 -38.5 -95.5t-107.5 -61.5q91 -17 137.5 -61.5t46.5 -97.5t-27 -90.5t-69 -57.5q-85 -42 -174 -42h-208zM187 359h72q91 0 130.5 40.5t39.5 101.5q0 41 -27.5 74.5t-84.5 50.5q-68 0 -130 -20v-247zM187 330v-285 q32 -10 99 -10t119 37t52 103t-57 110.5t-137 44.5h-76z" />
<glyph unicode="C" horiz-adv-x="632" d="M395 -12q-155 0 -261 84t-106 241q0 92 35 164t92 113q115 84 258 84q83 0 173 -30l-10 -68q-47 20 -73 30q-75 27 -151 27q-105 -24 -161.5 -104t-56.5 -200q0 -147 77 -226.5t203 -79.5t188 54v-55q-86 -34 -207 -34z" />
<glyph unicode="D" horiz-adv-x="708" d="M90 0v662h189q118 0 213 -50q51 -26 89 -65t61 -99.5t23 -134.5q0 -106 -53 -179q-97 -134 -314 -134h-208zM278 34q127 0 204 75t77 220q0 112 -61 191.5t-158 105.5q-87 0 -152 -21v-562q32 -9 90 -9z" />
<glyph unicode="E" horiz-adv-x="562" d="M90 0v662h401l-10 -67l-186 31q-49 0 -108 -17v-243h222v-38h-222v-292l310 31l-10 -67h-397z" />
<glyph unicode="F" horiz-adv-x="481" d="M187 366h212v-38h-212v-328h-97v662h391v-67l-185 31q-50 0 -109 -17v-243z" />
<glyph unicode="G" horiz-adv-x="680" d="M509 285h97v-263q-86 -34 -207 -34q-147 0 -253 78q-52 39 -83 102.5t-31 140.5t24 138.5t62.5 102.5t89.5 70q95 54 209 54q44 0 95 -10t78 -21l-10 -67q-135 57 -224 57q-101 -26 -159.5 -107t-58.5 -198q0 -146 77 -225.5t203 -79.5q50 0 91 10v252z" />
<glyph unicode="H" horiz-adv-x="677" d="M187 328v-328h-97v662h97v-296h303v296h97v-662h-97v328h-303z" />
<glyph unicode="I" horiz-adv-x="272" d="M182 662v-662h-92v662h92z" />
<glyph unicode="J" horiz-adv-x="389" d="M179 41v621h99v-621q0 -110 -67.5 -187.5t-163.5 -77.5q-51 0 -100 14l10 78q27 -18 69 -31.5t72 -13.5q34 21 57.5 83.5t23.5 134.5z" />
<glyph unicode="K" horiz-adv-x="609" d="M192 0h-102v662h102v-326l309 326h66l-313 -308l355 -354l-128 -13l-289 339v-326z" />
<glyph unicode="L" horiz-adv-x="487" d="M90 0v662h98v-608q61 -18 98 -18l181 31l-12 -67h-365z" />
<glyph unicode="M" horiz-adv-x="889" d="M443 157l221 505h102l37 -662h-102l-27 569h-4l-252 -569h-14l-247 546h-4l-27 -546h-44l37 662h93z" />
<glyph unicode="N" horiz-adv-x="683" d="M593 -11h-17l-438 548h-4v-537h-44v662h74l381 -481h4v481h44v-673z" />
<glyph unicode="O" horiz-adv-x="725" d="M391 674q130 0 215 -85.5t85 -237.5q0 -98 -34 -171.5t-89 -113.5q-107 -78 -236 -78t-213.5 86.5t-84.5 238.5q0 79 22.5 142.5t59 103.5t84.5 67q88 48 191 48zM260 45.5q44 -24.5 101.5 -24.5t102.5 29t70 76q51 94 51 202q0 133 -53 214q-59 91 -195 91 q-97 -34 -147 -117t-50 -188q0 -128 50 -214q26 -44 70 -68.5z" />
<glyph unicode="P" horiz-adv-x="546" d="M535 490q0 -96 -70.5 -145.5t-191.5 -49.5h-86v-295h-97v662h215q101 0 165.5 -46t64.5 -126zM187 324h89q47 0 80.5 18t48.5 46q27 50 27 97q0 23 -12 55q-24 66 -99 86q-72 0 -134 -17v-285z" />
<glyph unicode="Q" horiz-adv-x="725" d="M391 674q130 0 215 -85.5t85 -237.5q0 -83 -24.5 -148.5t-66.5 -106.5q-80 -80 -191 -100l164 -117l-83 -59l-148 168h-9q-130 0 -214.5 86.5t-84.5 238.5q0 79 22.5 142.5t59 103.5t84.5 67q88 48 191 48zM260 45.5q44 -24.5 101.5 -24.5t102.5 29t70 76q51 94 51 202 q0 133 -53 214q-59 91 -195 91q-97 -34 -147 -117t-50 -188q0 -128 50 -214q26 -44 70 -68.5z" />
<glyph unicode="R" horiz-adv-x="638" d="M188 316v-316h-98v662h216q101 0 165.5 -45t64.5 -118.5t-51.5 -116t-139.5 -58.5l268 -324l-116 -14l-232 330h-77zM188 346h64q180 0 180 142q0 24 -12 54q-23 63 -98 83q-68 0 -134 -17v-262z" />
<glyph unicode="S" horiz-adv-x="556" d="M162 547q0 -44 34.5 -81.5t84 -66t98.5 -58t83.5 -72.5t34.5 -95q0 -82 -60.5 -134t-163.5 -52t-204 39v47q102 -51 173.5 -51t111.5 35t40 97q0 42 -33 76.5t-80 60t-94 52.5t-80 68.5t-33 100.5t52.5 110t156.5 51q68 0 172 -31l-10 -68q-135 58 -231 58 q-52 -25 -52 -86z" />
<glyph unicode="T" horiz-adv-x="535" d="M316 0h-97v614q-34 8 -68 8l-135 -31l-6 71h515l-5 -71l-136 31q-34 0 -68 -8v-614z" />
<glyph unicode="U" horiz-adv-x="657" d="M582 662v-406q0 -93 -20 -140q-9 -21 -28.5 -47.5t-45.5 -42.5q-66 -38 -165 -38q-248 0 -248 255v419h102v-427q0 -29 1 -47t10.5 -51t26 -53t52 -36t84.5 -16q187 0 187 200v430h44z" />
<glyph unicode="V" horiz-adv-x="597" d="M307 -16l-297 678h109l220 -542l198 542h50l-264 -678h-16z" />
<glyph unicode="W" horiz-adv-x="856" d="M796 662h50l-248 -677h-16l-153 410l-150 -410h-16l-253 677h109l176 -542l112 334l-78 208h109l176 -542z" />
<glyph unicode="X" horiz-adv-x="646" d="M355 356l261 -356h-125l-188 292l-212 -292h-61l250 321l-238 341h125l166 -275l208 275h61z" />
<glyph unicode="Y" horiz-adv-x="557" d="M343 0h-97v246l-226 416h109l185 -380l173 380h50l-194 -411v-251z" />
<glyph unicode="Z" horiz-adv-x="571" d="M16 0v10l382 599q-59 17 -109 17l-206 -31l-10 67h468v-10l-394 -612l359 27l10 -67h-500z" />
<glyph unicode="[" horiz-adv-x="333" d="M299 636l-135 -28v-710l135 -29v-25l-211 16v786l211 16v-26z" />
<glyph unicode="\" horiz-adv-x="278" d="M-9 677h67l229 -691h-68z" />
<glyph unicode="]" horiz-adv-x="333" d="M34 -130l135 28v710l-135 29v25l211 -16v-786l-211 -16v26z" />
<glyph unicode="^" horiz-adv-x="469" d="M92 297h-68l181 365h60l181 -365h-68l-143 289z" />
<glyph unicode="_" d="M0 -75h500v-50h-500v50z" />
<glyph unicode="`" horiz-adv-x="333" d="M242 507h-40l-188 138l56 50z" />
<glyph unicode="a" horiz-adv-x="444" d="M285 106v103q-72 -5 -118 -32t-46 -58t16 -53.5t41 -31.5q33 6 70 33t37 39zM367 133q0 -71 52 -108l-52 -38l-81 73q-79 -72 -146 -72q-44 0 -75.5 28t-31.5 70.5t25.5 70.5t67.5 43q72 27 159 34v94q0 83 -96 83q-55 0 -130 -24l-9 25q20 16 69.5 34t94.5 18t75.5 -12 t45 -27t22.5 -41t9 -41t1 -40v-170z" />
<glyph unicode="b" d="M153 389q64 73 140.5 73t125 -61t48.5 -170.5t-72.5 -176.5t-176.5 -67q-78 0 -149 39v657h84v-294zM153 342v-286q51 -27 106 -27t88.5 54t33.5 134t-33 128t-83 64q-27 -2 -54.5 -17t-42.5 -29.5t-15 -20.5z" />
<glyph unicode="c" horiz-adv-x="406" d="M228 -12q-87 0 -144.5 59.5t-57.5 168.5t61.5 178.5t156.5 69.5q53 0 119 -26l-10 -66q-88 46 -151 46q-52 -26 -75 -84t-23 -114q0 -76 44.5 -126.5t106.5 -50.5t114 27v-35q-72 -47 -141 -47z" />
<glyph unicode="d" d="M424 134q0 -69 51 -110l-51 -37l-82 73q-40 -38 -72 -55t-66 -17t-60 10t-54.5 33.5t-46 74t-17.5 130.5t47.5 153.5t130.5 73.5q62 0 135 -46v266h85v-549zM339 101v279q-53 35 -97 35q-58 0 -93 -54.5t-35 -136.5t25.5 -131.5t63.5 -59.5q35 3 68.5 17t50.5 28.5 t17 22.5z" />
<glyph unicode="e" horiz-adv-x="469" d="M105 246q0 -108 48.5 -155.5t118 -47.5t128.5 27v-35q-82 -47 -157 -47q-97 0 -157 59t-60 171t66.5 179t160.5 67q73 0 122 -57.5t49 -160.5h-319zM202 417q-35 -17 -60 -54.5t-33 -86.5h234q-3 42 -19.5 72t-39.5 44q-41 25 -82 25z" />
<glyph unicode="f" horiz-adv-x="333" d="M308 452v-36h-121v-416h-84v416l-82 16v20h83q6 106 56.5 173t136.5 67q28 0 76 -12l-10 -65q-22 12 -56.5 21t-52.5 9q-34 -17 -49.5 -76t-17.5 -117h121z" />
<glyph unicode="g" horiz-adv-x="490" d="M160.5 64q28.5 -7 109.5 -7t130 -18t49 -68q0 -74 -72.5 -133.5t-177.5 -59.5q-76 0 -124.5 28.5t-48.5 81.5q0 75 82 111q-46 17 -46 63.5t72 101.5q-75 39 -75 127.5t55.5 130.5t124.5 42q49 0 94 -27l88 25l20 -43l-62 -31q19 -33 19 -77t-17.5 -77.5t-45.5 -51.5 q-56 -36 -121 -36q-10 0 -28 2q-17 -5 -35.5 -22t-18.5 -36t28.5 -26zM291.5 392.5q-27.5 38.5 -68 38.5t-64.5 -35t-24 -90.5t27 -92t65 -36.5q92 0 92 125q0 52 -27.5 90.5zM215 -176q83 0 141 46t58 92q-51 21 -142.5 21t-126.5 6q-44 -37 -44 -79q0 -86 114 -86z" />
<glyph unicode="h" horiz-adv-x="503" d="M314 462q46 0 82 -34t36 -117v-311h-84v301q0 49 -17.5 73.5t-67 24.5t-103.5 -53v-346h-84v683h81v-295q79 74 157 74z" />
<glyph unicode="i" horiz-adv-x="233" d="M75 0v452h83v-452h-83zM79.5 628q14.5 15 36 15t37 -15t15.5 -36t-15.5 -37t-36.5 -16t-36 15.5t-15 37t14.5 36.5z" />
<glyph unicode="j" horiz-adv-x="235" d="M154 554q-15 -15 -36.5 -15t-36.5 15t-15 37t15 37t36.5 15t36.5 -15t15 -37t-15 -37zM75 452h85v-470q0 -104 -46 -154.5t-120 -50.5q-33 0 -76 15l8 39q34 -8 66 -8q46 0 64.5 33t18.5 77v519z" />
<glyph unicode="k" horiz-adv-x="493" d="M159 0h-84v683h84v-423l231 192h66l-235 -178l250 -274l-100 -13l-212 264v-251z" />
<glyph unicode="l" horiz-adv-x="234" d="M159 683v-683h-84v683h84z" />
<glyph unicode="m" horiz-adv-x="778" d="M588 464q118 0 118 -179v-285h-84v293q0 84 -32 102q-16 9 -44.5 9t-61 -17.5t-47.5 -39.5v-347h-85v298q0 53 -16 79.5t-47 26.5t-59.5 -14t-45.5 -28t-17 -17v-345h-84v314q0 68 -51 109l51 38l80 -73q47 39 82 57.5t73 18.5q87 0 108 -81q35 40 80 60.5t82 20.5z" />
<glyph unicode="n" d="M235.5 446q31.5 18 74.5 18t79.5 -34t36.5 -117v-313h-85v303q0 49 -17.5 73.5t-60 24.5t-98.5 -56v-345h-85v314q0 68 -51 109l51 38l82 -73q42 40 73.5 58z" />
<glyph unicode="o" d="M413.5 404q57.5 -60 57.5 -165q0 -67 -23 -118t-60 -79q-71 -54 -158.5 -54t-145 60t-57.5 165q0 67 22.5 118t59.5 79q71 54 159 54t145.5 -60zM248 22q44 0 75 34q56 60 56 159.5t-34 155t-111 55.5q-57 -22 -86.5 -77.5t-29.5 -134t32 -135.5t98 -57z" />
<glyph unicode="p" d="M233.5 446q31.5 18 65 18t60 -11t54.5 -35.5t45.5 -76t17.5 -113t-20 -114.5t-63 -92t-103.5 -39t-129.5 47v-242h-85v529q0 69 -52 109l52 38l85 -76q42 40 73.5 58zM160 327v-268q137 -65 194 21q31 49 31 129.5t-25.5 138t-63.5 69.5q-35 -4 -68.5 -25t-50.5 -39.5 t-17 -25.5z" />
<glyph unicode="q" d="M425 -212h-84v268q-66 -73 -143 -73t-126.5 61t-49.5 168.5t65.5 179.5t157.5 72q62 0 126 -41l54 39v-674zM341 105v290q-7 5 -35 11.5t-58 6.5q-62 0 -101 -49.5t-39 -133t26 -137t70 -64.5q36 3 69.5 19t50.5 32.5t17 24.5z" />
<glyph unicode="r" horiz-adv-x="318" d="M148 0h-84v452h58l23 -84q20 35 63.5 66t89.5 38l10 -69q-37 0 -83.5 -23t-76.5 -51v-329z" />
<glyph unicode="s" horiz-adv-x="372" d="M126.5 402.5q-16.5 -19.5 -16.5 -44t23.5 -47t57 -40t66.5 -36.5t56.5 -49t23.5 -67q0 -56 -45 -93.5t-122.5 -37.5t-141.5 36v38q68 -34 123 -34t80 22t25 50.5t-22.5 51t-55 39.5t-64.5 36t-54.5 49t-22.5 72.5t34.5 79t106.5 36.5t138 -26l-10 -66q-74 40 -137 50 q-26 0 -42.5 -19.5z" />
<glyph unicode="t" horiz-adv-x="329" d="M187 43q12 -15 40 -15t67 15v-28q-58 -27 -104 -27t-72.5 25.5t-26.5 79.5v323l-81 16v20h81v36l84 61v-97h119v-36h-119v-328q0 -30 12 -45z" />
<glyph unicode="u" horiz-adv-x="480" d="M397 134q0 -69 52 -109l-52 -37l-81 73q-41 -39 -73 -56t-75.5 -17t-80 33.5t-36.5 115.5v315h85v-320q0 -48 17.5 -72.5t61 -24.5t97.5 64v353h85v-318z" />
<glyph unicode="v" horiz-adv-x="415" d="M221 -13h-15l-196 465h88l138 -350l131 350h38z" />
<glyph unicode="w" horiz-adv-x="684" d="M102 452l133 -353l90 246l-45 107h92l133 -353l130 353h39l-183 -465h-16l-132 312l-123 -312h-15l-195 465h92z" />
<glyph unicode="x" horiz-adv-x="474" d="M265 249l179 -249h-99l-129 189l-138 -189h-48l166 211l-163 241h99l114 -182l134 182h49z" />
<glyph unicode="y" horiz-adv-x="441" d="M382 452h38l-171 -467q-33 -92 -99 -148t-145 -57l10 50q135 5 210 175l-203 447h89l153 -339z" />
<glyph unicode="z" horiz-adv-x="444" d="M45 0v30l267 389l-246 -9l-10 42h347v-28l-266 -388l269 11l10 -47h-371z" />
<glyph unicode="{" horiz-adv-x="480" d="M186 337v208q0 71 28.5 104t99.5 33q21 0 44 -7v-31q-25 10 -58 10q-29 -8 -36.5 -27t-7.5 -58v-207q0 -46 -20 -70.5t-61 -41.5q41 -18 61 -42t20 -70v-207q0 -39 7.5 -58t36.5 -27q27 0 58 9v-30q-23 -7 -44 -7q-71 0 -99.5 33t-28.5 104v208q0 29 -13 53t-47 25v18 q34 1 47 24.5t13 53.5z" />
<glyph unicode="|" horiz-adv-x="200" d="M67 782h66v-1000h-66v1000z" />
<glyph unicode="}" horiz-adv-x="480" d="M295 163v-208q0 -71 -28.5 -104t-99.5 -33q-21 0 -44 7v31q25 -10 58 -10q29 8 36.5 27t7.5 58v207q0 46 20 70.5t61 41.5q-41 18 -61 42t-20 70v207q0 39 -7.5 58t-36.5 27q-27 0 -58 -9v30q23 7 44 7q71 0 99.5 -33t28.5 -104v-208q0 -29 13 -53t47 -25v-18 q-34 -1 -47 -24.5t-13 -53.5z" />
<glyph unicode="~" horiz-adv-x="541" d="M431 201.5q-25 -14.5 -60 -14.5t-96.5 34t-113.5 34t-85 -72l-36 50q45 86 125 86q40 0 133 -41q59 -27 79 -27t37.5 12t27 24.5t24.5 35.5l36 -50q-20 -27 -33 -42t-38 -29.5z" />
<glyph unicode="&#xa1;" horiz-adv-x="333" d="M132 299h35l30 -495h-95zM187 453q17 -13 17 -36.5t-16 -39.5t-38.5 -16t-38.5 15.5t-16 40t17 37t37.5 12.5t37.5 -13z" />
<glyph unicode="&#xa2;" d="M264 -87v76q-79 8 -128.5 66t-49.5 157t49 165t129 80v81h34v-77q59 0 125 -26l-20 -56q-62 29 -105 34v-370q6 -1 20 -1q59 0 111 27v-35q-66 -43 -131 -47v-74h-34zM187.5 331.5q-23.5 -57.5 -23.5 -114.5t27.5 -102t71.5 -63v363q-52 -26 -75.5 -83.5z" />
<glyph unicode="&#xa3;" d="M179 526l9 -154v-4h141v-38h-143q-8 -172 -77 -283q40 -9 93 -11l226 31l-12 -67h-360v27q55 87 55 220q0 27 -6 83h-79v38h74q-8 72 -8 101q0 94 53 152.5t134 58.5q57 0 133 -31l-10 -66q-98 53 -158 61q-37 -13 -51 -42t-14 -76z" />
<glyph unicode="&#xa4;" horiz-adv-x="552" d="M376 21q40 0 77 14t59 40v-55q-65 -33 -150 -33q-109 0 -191.5 78t-89.5 222h-63v39h62q0 18 4 54h-66v38h72q18 86 67 146q90 110 218 110q31 0 67.5 -8.5t57.5 -21.5v-66q-95 55 -169 55q-124 -39 -152 -215h202v-38h-206q-2 -32 -2 -54h208v-39h-207q8 -127 63 -196.5 t139 -69.5z" />
<glyph unicode="&#xa5;" d="M474 368v-38h-127l-33 -79v-8h160v-39h-160v-204h-97v204h-160v39h160v3l-42 84h-118v38h99l-145 293h109l165 -379l153 379h50l-125 -293h111z" />
<glyph unicode="&#xa6;" horiz-adv-x="200" d="M67 707h66v-350h-66v350zM67 207h66v-350h-66v350z" />
<glyph unicode="&#xa7;" d="M321 129q71 -57 71 -125.5t-46 -110t-125.5 -41.5t-153.5 32v38q78 -42 132 -42t84.5 28t30.5 69.5t-25 68t-60.5 47t-71.5 42.5t-61 57t-25 81t27.5 85t84.5 50q-78 56 -78 132q0 55 37.5 97.5t109 42.5t138.5 -31v-54q-96 43 -178 43q-40 -21 -40 -60t26 -67.5 t63.5 -51.5t75 -47.5t63.5 -61t26 -84t-27 -84.5t-78 -53zM285 155q63 24 63 99q0 34 -24 58.5t-70 51.5q-28 6 -77 6q-39 -21 -39 -63t32.5 -71.5t114.5 -80.5z" />
<glyph unicode="&#xa8;" horiz-adv-x="333" d="M18 587v8q0 7 3 13t3 8q17 25 44 25q14 0 21 -5q6 -1 16 -11l6 -9q5 -8 7 -21v-4q0 -27 -25 -44q-2 0 -4 -1q-7 -5 -19 -5q-8 0 -24 4q-6 3 -18 15q-2 4 -4 6q-6 14 -6 21zM215 591q0 21 14.5 35.5t35.5 14.5t35.5 -14.5t14.5 -35.5t-14.5 -35.5t-35.5 -14.5t-35.5 14.5 t-14.5 35.5z" />
<glyph unicode="&#xa9;" horiz-adv-x="760" d="M137.5 575.5q99.5 101.5 243.5 101.5t242.5 -101.5t98.5 -245.5t-98.5 -244t-242.5 -100t-243.5 100t-99.5 244t99.5 245.5zM584 543.5q-83 90.5 -203 90.5t-204 -90.5t-84 -213t84.5 -212.5t203 -90t202.5 90.5t84 212.5t-83 212.5zM534 137q-54 -29 -147.5 -29 t-162.5 55.5t-69 159.5q0 60 23 107.5t60 75.5q74 56 169 56q58 0 118 -21l-9 -59q-86 37 -147 39q-62 -15 -97.5 -65.5t-35.5 -131.5t47.5 -130.5t125.5 -49.5t125 44v-51z" />
<glyph unicode="&#xaa;" horiz-adv-x="262" d="M217 579v-96q0 -39 34 -61l-39 -30l-47 42q-43 -40 -76 -40t-52.5 18t-19.5 47t25 49q43 33 117 38v48q0 42 -48 42q-30 0 -78 -17l-8 24q14 11 44 22.5t59.5 11.5t49.5 -9t28 -28q11 -28 11 -61zM78 475q0 -31 27 -43q18 5 36 17.5t18 18.5v53q-36 -4 -58.5 -17.5 t-22.5 -28.5z" />
<glyph unicode="&#xab;" d="M42 227l211 189q10 0 10 -11l-128 -180l129 -181q0 -11 -11 -11zM234 227l211 189q10 0 10 -11l-128 -180l129 -181q0 -11 -11 -11z" />
<glyph unicode="&#xac;" horiz-adv-x="564" d="M447 124v188h-388v58h446v-246h-58z" />
<glyph unicode="&#xae;" horiz-adv-x="760" d="M722 330q0 -144 -98.5 -244t-242.5 -100t-243.5 100t-99.5 244t99.5 245.5t243.5 101.5t242.5 -101.5t98.5 -245.5zM583 118.5q84 90.5 84 212.5t-83 212.5t-203 90.5t-204 -90.5t-84 -213t84.5 -212.5t203 -90t202.5 90.5zM321 318v-201h-77v435h145q67 0 110 -30.5 t43 -79.5t-31.5 -77.5t-84.5 -39.5l133 -207l-90 -11l-110 211h-38zM321 350h34q108 0 108 84q0 12 -7 31q-14 35 -59 50q-32 0 -76 -10v-155z" />
<glyph unicode="&#xaf;" horiz-adv-x="333" d="M11 601h311v-54h-311v54z" />
<glyph unicode="&#xb0;" horiz-adv-x="400" d="M200 424q43 0 73.5 32.5t30.5 76.5t-30.5 76.5t-73.5 32.5t-73.5 -32.5t-30.5 -76.5t30.5 -76.5t73.5 -32.5zM200 390q-60 0 -101.5 41.5t-41.5 101.5t41.5 102t101.5 42t101.5 -42t41.5 -102t-41.5 -101.5t-101.5 -41.5z" />
<glyph unicode="&#xb1;" horiz-adv-x="564" d="M253 358v195h58v-195h194v-58h-194v-195h-58v195h-194v58h194zM505 0h-446v58h446v-58z" />
<glyph unicode="&#xb2;" horiz-adv-x="405" d="M290 630.5q33 -33.5 33 -81t-51.5 -107t-115.5 -107.5v-5l176 8v-57h-262v41q66 40 125 107t59 116.5t-49 69.5q-37 -1 -106 -21l-16 54q48 16 111 16t96 -33.5z" />
<glyph unicode="&#xb3;" horiz-adv-x="405" d="M184 271q-54 0 -114 18l17 48q54 -24 90 -30q33 1 56 21.5t23 54.5t-29 56.5t-92 22.5v26q106 6 106 73q0 12 -11.5 30t-35.5 30q-25 0 -93 -18l-17 47q54 14 101 14t86 -26.5t39 -76.5t-70 -82q45 -12 68.5 -36t23.5 -55q0 -55 -47 -86t-101 -31z" />
<glyph unicode="&#xb4;" horiz-adv-x="333" d="M133 507h-40l172 188l56 -50z" />
<glyph unicode="&#xb5;" horiz-adv-x="510" d="M405 452v-318q0 -69 52 -109l-52 -37l-81 73q-32 -39 -59 -56.5t-68 -17.5q-54 0 -86 57h-4q3 -48 15 -102.5t22 -85.5l11 -30q-25 -36 -76 -36v662h85v-320q0 -48 17.5 -72.5t59.5 -24.5q21 0 43.5 20t35.5 44v353h85z" />
<glyph unicode="&#xb6;" horiz-adv-x="453" d="M238 640v-794h-66v477q-101 0 -147.5 41.5t-46.5 134.5q0 163 209 163h175v-816h-66v794h-58zM82.5 602.5q-28.5 -33.5 -28.5 -113.5t28.5 -110t89.5 -34v295q-61 -4 -89.5 -37.5z" />
<glyph unicode="&#xb7;" horiz-adv-x="250" d="M125 199q-19 0 -37 14t-18 39t16 41.5t39 16.5t39.5 -17t16.5 -41t-18.5 -38.5t-37.5 -14.5z" />
<glyph unicode="&#xb8;" horiz-adv-x="333" d="M225.5 -190.5q-35.5 -24.5 -85 -24.5t-88.5 16l14 31q29 -12 57.5 -12t45.5 11.5t17 27.5q-21 41 -87 41l40 100h35l-25 -65q33 0 64 -17.5t48 -49.5q0 -34 -35.5 -58.5z" />
<glyph unicode="&#xb9;" horiz-adv-x="405" d="M258 667v-386h-68v307l-81 -41l-29 48l169 72h9z" />
<glyph unicode="&#xba;" horiz-adv-x="304" d="M60 641q45 36 101 36t91 -35.5t35 -106t-45 -106.5t-100.5 -36t-91 36t-35.5 106t45 106zM95 456q18 -31 54.5 -31t55 34t18.5 75q0 110 -80 110q-33 -12 -49.5 -42t-16.5 -72.5t18 -73.5z" />
<glyph unicode="&#xbb;" d="M460 221l-211 -189q-10 0 -10 11l128 180l-129 181q0 11 11 11zM270 221l-211 -189q-10 0 -10 11l128 180l-129 181q0 11 11 11z" />
<glyph unicode="&#xbc;" horiz-adv-x="799" d="M227 687v-386h-68v307l-81 -41l-29 48l169 72h9zM757 120v-44h-53v-76h-67v76h-183v26l186 276h64v-258h53zM637 120v193l-127 -193h127zM599 677l-350 -691h-49l353 691h46z" />
<glyph unicode="&#xbd;" horiz-adv-x="799" d="M227 687v-386h-68v307l-81 -41l-29 48l169 72h9zM700 349.5q33 -33.5 33 -81t-51.5 -107t-115.5 -107.5v-5l176 8v-57h-262v41q66 40 125 107t59 116.5t-49 69.5q-37 -1 -106 -21l-16 54q48 16 111 16t96 -33.5zM599 677l-350 -691h-49l353 691h46z" />
<glyph unicode="&#xbe;" horiz-adv-x="799" d="M153 291q-54 0 -114 18l17 48q54 -24 90 -30q33 1 56 21.5t23 54.5t-29 56.5t-92 22.5v26q106 6 106 73q0 12 -11.5 30t-35.5 30q-25 0 -93 -18l-17 47q54 14 101 14t86 -26.5t39 -76.5t-70 -82q45 -12 68.5 -36t23.5 -55q0 -55 -47 -86t-101 -31zM727 120v-44h-53v-76 h-67v76h-183v26l186 276h64v-258h53zM607 120v193l-127 -193h127zM599 677l-350 -691h-49l353 691h46z" />
<glyph unicode="&#xbf;" horiz-adv-x="444" d="M288 376.5q-16 -15.5 -38.5 -15.5t-38.5 16t-16 39.5t17 37t37 13.5t37.5 -13t17.5 -37.5t-16 -40zM253 -196q-112 0 -160.5 49.5t-48.5 118t58.5 156t141.5 171.5l29 -23q-65 -70 -105.5 -148.5t-40.5 -142.5q0 -91 86 -125q68 0 143 22v-63q-58 -15 -103 -15z" />
<glyph unicode="&#xc0;" horiz-adv-x="629" d="M10 0l297 678h15l297 -678h-109l-75 180h-297l-74 -180h-54zM153 218h266l-132 324zM389 719h-40l-188 138l56 50z" />
<glyph unicode="&#xc1;" horiz-adv-x="629" d="M10 0l297 678h15l297 -678h-109l-75 180h-297l-74 -180h-54zM153 218h266l-132 324zM305 734h-40l172 194l56 -52z" />
<glyph unicode="&#xc2;" horiz-adv-x="629" d="M10 0l297 678h15l297 -678h-109l-75 180h-297l-74 -180h-54zM153 218h266l-132 324zM339 886l126 -167h-40l-110 93l-109 -93h-40l125 167h48z" />
<glyph unicode="&#xc3;" horiz-adv-x="629" d="M10 0l297 678h15l297 -678h-109l-75 180h-297l-74 -180h-54zM153 218h266l-132 324zM299.5 764.5q-50.5 20.5 -63.5 20.5t-24 -10t-28 -33l-27 15q27 65 102 89q22 0 72.5 -20.5t63.5 -20.5t24 10t28 33l27 -15q-27 -65 -102 -89q-22 0 -72.5 20.5z" />
<glyph unicode="&#xc4;" horiz-adv-x="629" d="M10 0l297 678h15l297 -678h-109l-75 180h-297l-74 -180h-54zM153 218h266l-132 324zM166 753v12q0 27 32 43l14 3h4q31 0 45 -29q4 -8 4 -11t1 -6v-8q0 -17 -19 -36q-4 -2 -6 -4q-2 0 -4 -1q-7 -5 -17 -5h-4q-18 0 -25 5.5t-9 6.5q-3 2 -3 4q-6 5 -10 16zM363 761 q0 21 14.5 35.5t35.5 14.5t35.5 -14.5t14.5 -35.5t-14.5 -35.5t-35.5 -14.5t-35.5 14.5t-14.5 35.5z" />
<glyph unicode="&#xc5;" horiz-adv-x="629" d="M10 0l297 678h15l297 -678h-109l-75 180h-297l-74 -180h-54zM153 218h266l-132 324zM214 798q0 41 28.5 70.5t70 29.5t71 -29.5t29.5 -70.5t-29.5 -70t-71 -29t-70 29t-28.5 70zM360 844.5q-19 19.5 -48.5 19.5t-46.5 -21.5t-17 -44t16.5 -44t46 -21.5t49 19t19.5 46 t-19 46.5z" />
<glyph unicode="&#xc6;" horiz-adv-x="822" d="M375 0v180h-217l-94 -180h-54l365 661h376l-10 -67l-161 31q-49 0 -108 -17v-242h197v-38h-197v-292l295 31l-10 -67h-382zM375 218v375l-197 -375h197z" />
<glyph unicode="&#xc7;" horiz-adv-x="632" d="M28 313q0 92 35 164t92 113q115 84 258 84q83 0 173 -30l-10 -68q-47 20 -73 30q-75 27 -151 27q-105 -24 -161.5 -104t-56.5 -200q0 -147 77 -226.5t203 -79.5t188 54v-55q-86 -34 -207 -34h-12l-20 -53q33 0 64 -17.5t48 -49.5q0 -34 -35.5 -58.5t-85 -24.5t-88.5 16 l14 31q29 -12 57.5 -12t45.5 11.5t17 27.5q-21 41 -87 41l36 90q-139 12 -230 95t-91 228z" />
<glyph unicode="&#xc8;" horiz-adv-x="562" d="M90 0v662h401l-10 -67l-186 31q-49 0 -108 -17v-243h222v-38h-222v-292l310 31l-10 -67h-397zM381 719h-40l-188 138l56 50z" />
<glyph unicode="&#xc9;" horiz-adv-x="562" d="M90 0v662h401l-10 -67l-186 31q-49 0 -108 -17v-243h222v-38h-222v-292l310 31l-10 -67h-397zM273 719h-40l172 188l56 -50z" />
<glyph unicode="&#xca;" horiz-adv-x="562" d="M90 0v662h401l-10 -67l-186 31q-49 0 -108 -17v-243h222v-38h-222v-292l310 31l-10 -67h-397zM329 886l126 -167h-40l-110 93l-109 -93h-40l125 167h48z" />
<glyph unicode="&#xcb;" horiz-adv-x="562" d="M90 0v662h401l-10 -67l-186 31q-49 0 -108 -17v-243h222v-38h-222v-292l310 31l-10 -67h-397zM342 761q0 21 14.5 35.5t35.5 14.5t35.5 -14.5t14.5 -35.5t-14.5 -35.5t-35.5 -14.5t-35.5 14.5t-14.5 35.5zM203 711h-16l-10 3q-18 6 -28 25q-4 12 -4 18v4q0 13 4 20t6 11 l9 8q8 6 13 8l14 3h8l14 -3l3 -2q2 0 4 -2l12 -9l6 -9q7 -12 7 -25v-4l-3 -14q-2 -5 -8 -13q-2 -5 -5 -6q-5 -5 -16 -10z" />
<glyph unicode="&#xcc;" horiz-adv-x="272" d="M182 662v-662h-92v662h92zM183 719h-40l-188 138l56 50z" />
<glyph unicode="&#xcd;" horiz-adv-x="272" d="M182 662v-662h-92v662h92zM133 719h-40l172 188l56 -50z" />
<glyph unicode="&#xce;" horiz-adv-x="272" d="M182 662v-662h-92v662h92zM159 886l126 -167h-40l-110 93l-109 -93h-40l125 167h48z" />
<glyph unicode="&#xcf;" horiz-adv-x="272" d="M182 662v-662h-92v662h92zM187 761q0 21 14.5 35.5t35.5 14.5t35.5 -14.5t14.5 -35.5t-14.5 -35.5t-35.5 -14.5t-35.5 14.5t-14.5 35.5zM74 798q14 -14 14.5 -22t1.5 -11v-4v-10q-2 -10 -7 -15q-5 -11 -9 -12q-13 -13 -30 -13t-22.5 3t-7 4t-5.5 3q-7 6 -12 15 q-7 5 -7 19.5t3 23.5q12 32 47 32h4q3 -1 5.5 -1t10 -3.5t14.5 -8.5z" />
<glyph unicode="&#xd0;" horiz-adv-x="708" d="M90 0v316h-85v43h85v303h189q118 0 213 -50q51 -26 89 -65t61 -99.5t23 -134.5q0 -106 -53 -179q-97 -134 -314 -134h-208zM278 34q127 0 204 75t77 220q0 112 -61 191.5t-158 105.5q-87 0 -152 -21v-246h144v-43h-144v-273q32 -9 90 -9z" />
<glyph unicode="&#xd1;" horiz-adv-x="722" d="M593 -11h-17l-438 548h-4v-537h-44v662h74l381 -481h4v481h44v-673zM344.5 764.5q-50.5 20.5 -63.5 20.5t-24 -10t-28 -33l-27 15q27 65 102 89q22 0 72.5 -20.5t63.5 -20.5t24 10t28 33l27 -15q-27 -65 -102 -89q-22 0 -72.5 20.5z" />
<glyph unicode="&#xd2;" horiz-adv-x="725" d="M391 674q130 0 215 -85.5t85 -237.5q0 -98 -34 -171.5t-89 -113.5q-107 -78 -236 -78t-213.5 86.5t-84.5 238.5q0 79 22.5 142.5t59 103.5t84.5 67q88 48 191 48zM260 45.5q44 -24.5 101.5 -24.5t102.5 29t70 76q51 94 51 202q0 133 -53 214q-59 91 -195 91 q-97 -34 -147 -117t-50 -188q0 -128 50 -214q26 -44 70 -68.5zM436 719h-40l-188 138l56 50z" />
<glyph unicode="&#xd3;" horiz-adv-x="725" d="M391 674q130 0 215 -85.5t85 -237.5q0 -98 -34 -171.5t-89 -113.5q-107 -78 -236 -78t-213.5 86.5t-84.5 238.5q0 79 22.5 142.5t59 103.5t84.5 67q88 48 191 48zM260 45.5q44 -24.5 101.5 -24.5t102.5 29t70 76q51 94 51 202q0 133 -53 214q-59 91 -195 91 q-97 -34 -147 -117t-50 -188q0 -128 50 -214q26 -44 70 -68.5zM328 719h-40l172 188l56 -50z" />
<glyph unicode="&#xd4;" horiz-adv-x="725" d="M391 674q130 0 215 -85.5t85 -237.5q0 -98 -34 -171.5t-89 -113.5q-107 -78 -236 -78t-213.5 86.5t-84.5 238.5q0 79 22.5 142.5t59 103.5t84.5 67q88 48 191 48zM260 45.5q44 -24.5 101.5 -24.5t102.5 29t70 76q51 94 51 202q0 133 -53 214q-59 91 -195 91 q-97 -34 -147 -117t-50 -188q0 -128 50 -214q26 -44 70 -68.5zM384 886l126 -167h-40l-110 93l-109 -93h-40l125 167h48z" />
<glyph unicode="&#xd5;" horiz-adv-x="725" d="M391 674q130 0 215 -85.5t85 -237.5q0 -98 -34 -171.5t-89 -113.5q-107 -78 -236 -78t-213.5 86.5t-84.5 238.5q0 79 22.5 142.5t59 103.5t84.5 67q88 48 191 48zM260 45.5q44 -24.5 101.5 -24.5t102.5 29t70 76q51 94 51 202q0 133 -53 214q-59 91 -195 91 q-97 -34 -147 -117t-50 -188q0 -128 50 -214q26 -44 70 -68.5zM346.5 764.5q-50.5 20.5 -63.5 20.5t-24 -10t-28 -33l-27 15q27 65 102 89q22 0 72.5 -20.5t63.5 -20.5t24 10t28 33l27 -15q-27 -65 -102 -89q-22 0 -72.5 20.5z" />
<glyph unicode="&#xd6;" horiz-adv-x="725" d="M391 674q130 0 215 -85.5t85 -237.5q0 -98 -34 -171.5t-89 -113.5q-107 -78 -236 -78t-213.5 86.5t-84.5 238.5q0 79 22.5 142.5t59 103.5t84.5 67q88 48 191 48zM260 45.5q44 -24.5 101.5 -24.5t102.5 29t70 76q51 94 51 202q0 133 -53 214q-59 91 -195 91 q-97 -34 -147 -117t-50 -188q0 -128 50 -214q26 -44 70 -68.5zM269 711h-12q-10 2 -14.5 5t-8.5 5q-18 14 -19 36v4q0 21 14.5 35.5t35.5 14.5q31 0 45 -29q5 -10 5 -21v-4q0 -1 -1 -5q-1 -11 -6 -16l-6 -9l-6 -6q-4 -2 -6 -4q-14 -6 -21 -6zM412 761q0 21 14.5 35.5 t35.5 14.5t35.5 -14.5t14.5 -35.5t-14.5 -35.5t-35.5 -14.5t-35.5 14.5t-14.5 35.5z" />
<glyph unicode="&#xd7;" horiz-adv-x="564" d="M240 253l-174 174l42 42l174 -174l175 174l42 -42l-174 -174l174 -175l-42 -42l-175 174l-174 -174l-42 42z" />
<glyph unicode="&#xd8;" horiz-adv-x="725" d="M543 636l66 98h49l-81 -120q114 -88 114 -263q0 -98 -34 -171.5t-89 -113.5q-107 -78 -235 -78q-87 0 -155 39l-73 -107h-49l89 130q-111 90 -111 263q0 79 22.5 142.5t59 103.5t84.5 67q88 48 181.5 48t161.5 -38zM362 21q57 0 102 29t70 76q51 94 51 202q0 138 -55 217 l-315 -464q55 -60 147 -60zM190 516q-50 -83 -50 -201t49 -199l313 460q-62 57 -165 57q-97 -34 -147 -117z" />
<glyph unicode="&#xd9;" horiz-adv-x="657" d="M582 662v-406q0 -93 -20 -140q-9 -21 -28.5 -47.5t-45.5 -42.5q-66 -38 -165 -38q-248 0 -248 255v419h102v-427q0 -29 1 -47t10.5 -51t26 -53t52 -36t84.5 -16q187 0 187 200v430h44zM437 719h-40l-188 138l56 50z" />
<glyph unicode="&#xda;" horiz-adv-x="657" d="M582 662v-406q0 -93 -20 -140q-9 -21 -28.5 -47.5t-45.5 -42.5q-66 -38 -165 -38q-248 0 -248 255v419h102v-427q0 -29 1 -47t10.5 -51t26 -53t52 -36t84.5 -16q187 0 187 200v430h44zM372 719h-40l172 188l56 -50z" />
<glyph unicode="&#xdb;" horiz-adv-x="657" d="M582 662v-406q0 -93 -20 -140q-9 -21 -28.5 -47.5t-45.5 -42.5q-66 -38 -165 -38q-248 0 -248 255v419h102v-427q0 -29 1 -47t10.5 -51t26 -53t52 -36t84.5 -16q187 0 187 200v430h44zM378 886l126 -167h-40l-110 93l-109 -93h-40l125 167h48z" />
<glyph unicode="&#xdc;" horiz-adv-x="657" d="M582 662v-406q0 -93 -20 -140q-9 -21 -28.5 -47.5t-45.5 -42.5q-66 -38 -165 -38q-248 0 -248 255v419h102v-427q0 -29 1 -47t10.5 -51t26 -53t52 -36t84.5 -16q187 0 187 200v430h44zM402 761q0 21 14.5 35.5t35.5 14.5t35.5 -14.5t14.5 -35.5t-14.5 -35.5t-35.5 -14.5 t-35.5 14.5t-14.5 35.5zM205 753v8q0 21 14.5 35.5t35.5 14.5h4l14 -3l16 -10l3 -3l6 -9q2 -2 2 -4l2 -3l3 -14v-8q0 -1 -1 -5q-1 -14 -15 -28q-15 -13 -32 -13t-23 4t-10 6q-16 13 -19 32z" />
<glyph unicode="&#xdd;" horiz-adv-x="557" d="M343 0h-97v246l-226 416h109l185 -380l173 380h50l-194 -411v-251zM303 719h-40l172 188l56 -50z" />
<glyph unicode="&#xde;" horiz-adv-x="556" d="M187 194h89q47 0 80.5 18t48.5 46q27 50 27 97q0 23 -12 55q-24 66 -99 86q-72 0 -134 -17v-285zM187 532h118q101 0 165.5 -46t64.5 -126q0 -96 -70.5 -145.5t-191.5 -49.5h-86v-165h-97v662h97v-130z" />
<glyph unicode="&#xdf;" horiz-adv-x="579" d="M466 180q0 35 -15 64.5t-37 47.5t-44 32.5t-37 27.5t-15 27.5t23 44.5t45.5 64.5t22.5 61.5t-22.5 50.5t-57.5 34.5q-52 0 -144 -28v-607h-82v416l-83 16v20h84v203q93 28 195.5 28t150 -33.5t47.5 -86.5q0 -30 -20.5 -64.5t-41 -55.5t-60.5 -57q178 -92 178 -206 q0 -94 -64.5 -143t-136 -49t-144.5 26l23 64q60 -30 112 -48q52 8 87.5 45t35.5 105z" />
<glyph unicode="&#xe0;" horiz-adv-x="444" d="M285 106v103q-72 -5 -118 -32t-46 -58t16 -53.5t41 -31.5q33 6 70 33t37 39zM367 133q0 -71 52 -108l-52 -38l-81 73q-79 -72 -146 -72q-44 0 -75.5 28t-31.5 70.5t25.5 70.5t67.5 43q72 27 159 34v94q0 83 -96 83q-55 0 -130 -24l-9 25q20 16 69.5 34t94.5 18t75.5 -12 t45 -27t22.5 -41t9 -41t1 -40v-170zM298 507h-40l-188 138l56 50z" />
<glyph unicode="&#xe1;" horiz-adv-x="444" d="M285 106v103q-72 -5 -118 -32t-46 -58t16 -53.5t41 -31.5q33 6 70 33t37 39zM367 133q0 -71 52 -108l-52 -38l-81 73q-79 -72 -146 -72q-44 0 -75.5 28t-31.5 70.5t25.5 70.5t67.5 43q72 27 159 34v94q0 83 -96 83q-55 0 -130 -24l-9 25q20 16 69.5 34t94.5 18t75.5 -12 t45 -27t22.5 -41t9 -41t1 -40v-170zM189 507h-40l172 188l56 -50z" />
<glyph unicode="&#xe2;" horiz-adv-x="444" d="M378 507h-34l-122 103l-121 -103h-34l124 167h62zM285 106v103q-72 -5 -118 -32t-46 -58t16 -53.5t41 -31.5q33 6 70 33t37 39zM367 133q0 -71 52 -108l-52 -38l-81 73q-79 -72 -146 -72q-44 0 -75.5 28t-31.5 70.5t25.5 70.5t67.5 43q72 27 159 34v94q0 83 -96 83 q-55 0 -130 -24l-9 25q20 16 69.5 34t94.5 18t75.5 -12t45 -27t22.5 -41t9 -41t1 -40v-170z" />
<glyph unicode="&#xe3;" horiz-adv-x="444" d="M285 106v103q-72 -5 -118 -32t-46 -58t16 -53.5t41 -31.5q33 6 70 33t37 39zM367 133q0 -71 52 -108l-52 -38l-81 73q-79 -72 -146 -72q-44 0 -75.5 28t-31.5 70.5t25.5 70.5t67.5 43q72 27 159 34v94q0 83 -96 83q-55 0 -130 -24l-9 25q20 16 69.5 34t94.5 18t75.5 -12 t45 -27t22.5 -41t9 -41t1 -40v-170zM206.5 552.5q-50.5 20.5 -63.5 20.5t-24 -10t-28 -33l-27 15q27 65 102 89q22 0 72.5 -20.5t63.5 -20.5t24 10t28 33l27 -15q-27 -65 -102 -89q-22 0 -72.5 20.5z" />
<glyph unicode="&#xe4;" horiz-adv-x="444" d="M367 133q0 -71 52 -108l-52 -38l-81 73q-79 -72 -146 -72q-44 0 -75.5 28t-31.5 70.5t25.5 70.5t67.5 43q72 27 159 34v94q0 83 -96 83q-55 0 -130 -24l-9 25q20 16 69.5 34t94.5 18t75.5 -12t45 -27t22.5 -41t9 -41t1 -40v-170zM285 106v103q-72 -5 -118 -32t-46 -58 t16 -53.5t41 -31.5q33 6 70 33t37 39zM128 541h-12q-6 0 -18 4q-26 13 -28 42v4q0 32 28 45q10 5 20 5q20 0 27 -7l9 -6q11 -11 11 -16q3 -5 5 -17v-4q0 -27 -25 -44zM267 591q0 21 14.5 35.5t35.5 14.5t35.5 -14.5t14.5 -35.5t-14.5 -35.5t-35.5 -14.5t-35.5 14.5 t-14.5 35.5z" />
<glyph unicode="&#xe5;" horiz-adv-x="444" d="M123 611q0 41 28.5 70.5t70 29.5t71 -29.5t29.5 -70.5t-29.5 -70t-71 -29t-70 29t-28.5 70zM269 657.5q-19 19.5 -48.5 19.5t-46.5 -21.5t-17 -44t16.5 -44t46 -21.5t49 19t19.5 46t-19 46.5zM285 106v103q-72 -5 -118 -32t-46 -58t16 -53.5t41 -31.5q33 6 70 33t37 39z M367 133q0 -71 52 -108l-52 -38l-81 73q-79 -72 -146 -72q-44 0 -75.5 28t-31.5 70.5t25.5 70.5t67.5 43q72 27 159 34v94q0 83 -96 83q-55 0 -130 -24l-9 25q20 16 69.5 34t94.5 18t75.5 -12t45 -27t22.5 -41t9 -41t1 -40v-170z" />
<glyph unicode="&#xe6;" horiz-adv-x="704" d="M216 464q105 0 136 -66q64 66 160 66q73 0 122 -58t49 -161h-316v-47q11 -83 57 -119.5t111 -36.5t124 27v-35q-81 -46 -157 -46q-127 0 -185 94q-41 -38 -90.5 -66t-90 -28t-72 28t-31.5 70.5t25.5 70.5t67.5 43q72 27 159 34v92q0 85 -96 85q-55 0 -130 -24l-9 25 q20 16 69.5 34t96.5 18zM461 417q-35 -17 -60 -55t-33 -87h234q-3 42 -19.5 72.5t-39.5 44.5q-43 25 -82 25zM167 177q-46 -27 -46 -58t16 -53.5t41 -31.5q30 6 71 35t52 48q-16 43 -16 92q-72 -5 -118 -32z" />
<glyph unicode="&#xe7;" horiz-adv-x="436" d="M26 212q0 113 61.5 182.5t156.5 69.5q53 0 119 -26l-10 -66q-88 46 -151 46q-52 -26 -75 -84t-23 -114q0 -76 44.5 -126.5t106.5 -50.5t114 27v-35q-72 -47 -141 -47h-10l-20 -53q33 0 64 -17.5t48 -49.5q0 -34 -35.5 -58.5t-85 -24.5t-88.5 16l14 31q29 -12 57.5 -12 t45.5 11.5t17 27.5q-21 41 -87 41l37 92q-71 14 -115 71.5t-44 148.5z" />
<glyph unicode="&#xe8;" horiz-adv-x="444" d="M105 246q0 -108 48.5 -155.5t118 -47.5t128.5 27v-35q-82 -47 -157 -47q-97 0 -157 59t-60 171t66.5 179t160.5 67q73 0 122 -57.5t49 -160.5h-319zM202 417q-35 -17 -60 -54.5t-33 -86.5h234q-3 42 -19.5 72t-39.5 44q-41 25 -82 25zM299 507h-40l-188 138l56 50z" />
<glyph unicode="&#xe9;" horiz-adv-x="444" d="M105 246q0 -108 48.5 -155.5t118 -47.5t128.5 27v-35q-82 -47 -157 -47q-97 0 -157 59t-60 171t66.5 179t160.5 67q73 0 122 -57.5t49 -160.5h-319zM202 417q-35 -17 -60 -54.5t-33 -86.5h234q-3 42 -19.5 72t-39.5 44q-41 25 -82 25zM231 507h-40l172 188l56 -50z" />
<glyph unicode="&#xea;" horiz-adv-x="444" d="M378 507h-34l-122 103l-121 -103h-34l124 167h62zM105 246q0 -108 48.5 -155.5t118 -47.5t128.5 27v-35q-82 -47 -157 -47q-97 0 -157 59t-60 171t66.5 179t160.5 67q73 0 122 -57.5t49 -160.5h-319zM202 417q-35 -17 -60 -54.5t-33 -86.5h234q-3 42 -19.5 72t-39.5 44 q-41 25 -82 25z" />
<glyph unicode="&#xeb;" horiz-adv-x="444" d="M105 246q0 -108 48.5 -155.5t118 -47.5t128.5 27v-35q-82 -47 -157 -47q-97 0 -157 59t-60 171t66.5 179t160.5 67q73 0 122 -57.5t49 -160.5h-319zM202 417q-35 -17 -60 -54.5t-33 -86.5h234q-3 42 -19.5 72t-39.5 44q-41 25 -82 25zM86 583v12q0 7 4 17l6 10 q19 19 34 19q27 0 43 -16l6 -9q2 -2 4 -6t2 -8t1 -7v-4q0 -18 -7 -25q-5 -11 -9 -12l-3 -3q-4 -2 -6 -4q-14 -6 -29 -6t-29 12t-17 30zM283 591q0 21 14.5 35.5t35.5 14.5t35.5 -14.5t14.5 -35.5t-14.5 -35.5t-35.5 -14.5t-35.5 14.5t-14.5 35.5z" />
<glyph unicode="&#xec;" horiz-adv-x="233" d="M197 507h-40l-188 138l56 50zM75 0v452h83v-452h-83z" />
<glyph unicode="&#xed;" horiz-adv-x="233" d="M105 507h-40l172 188l56 -50zM75 0v452h83v-452h-83z" />
<glyph unicode="&#xee;" horiz-adv-x="233" d="M75 0v452h83v-452h-83zM140 674l126 -167h-40l-110 93l-109 -93h-40l125 167h48z" />
<glyph unicode="&#xef;" horiz-adv-x="233" d="M75 0v452h83v-452h-83zM165 591q0 21 14.5 35.5t35.5 14.5t35.5 -14.5t14.5 -35.5t-14.5 -35.5t-35.5 -14.5t-35.5 14.5t-14.5 35.5zM52 628q14 -14 14.5 -22t1.5 -11v-4v-10q-2 -10 -7 -15q-5 -11 -9 -12q-13 -13 -30 -13t-22 3t-7 3q-2 2 -6 4q-7 6 -12 15 q-7 5 -7 19.5t3 23.5q12 32 47 32h4q3 -1 5.5 -1t10 -3.5t14.5 -8.5z" />
<glyph unicode="&#xf0;" d="M471 249q0 -68 -21.5 -120t-57.5 -82q-71 -59 -160.5 -59t-147 60t-57.5 165q0 67 23 118.5t58 78.5q68 54 130 54q76 0 124 -62l4 3q-18 104 -92 175l-83 -45l-44 22l93 50q-47 32 -108 46l12 30q77 -13 138 -53l92 51l44 -23l-99 -54q74 -62 113 -155.5t39 -199.5z M248 22q44 0 75 34q56 60 56 159.5t-34 155t-111 55.5q-57 -22 -86.5 -77.5t-29.5 -134t32 -135.5t98 -57z" />
<glyph unicode="&#xf1;" d="M235.5 446q31.5 18 74.5 18t79.5 -34t36.5 -117v-313h-85v303q0 49 -17.5 73.5t-60 24.5t-98.5 -56v-345h-85v314q0 68 -51 109l51 38l82 -73q42 40 73.5 58zM234.5 552.5q-50.5 20.5 -63.5 20.5t-24 -10t-28 -33l-27 15q27 65 102 89q22 0 72.5 -20.5t63.5 -20.5t24 10 t28 33l27 -15q-27 -65 -102 -89q-22 0 -72.5 20.5z" />
<glyph unicode="&#xf2;" d="M413.5 404q57.5 -60 57.5 -165q0 -67 -23 -118t-60 -79q-71 -54 -158.5 -54t-145 60t-57.5 165q0 67 22.5 118t59.5 79q71 54 159 54t145.5 -60zM248 22q44 0 75 34q56 60 56 159.5t-34 155t-111 55.5q-57 -22 -86.5 -77.5t-29.5 -134t32 -135.5t98 -57zM326 507h-40 l-188 138l56 50z" />
<glyph unicode="&#xf3;" d="M413.5 404q57.5 -60 57.5 -165q0 -67 -23 -118t-60 -79q-71 -54 -158.5 -54t-145 60t-57.5 165q0 67 22.5 118t59.5 79q71 54 159 54t145.5 -60zM248 22q44 0 75 34q56 60 56 159.5t-34 155t-111 55.5q-57 -22 -86.5 -77.5t-29.5 -134t32 -135.5t98 -57zM217 507h-40 l172 188l56 -50z" />
<glyph unicode="&#xf4;" d="M413.5 404q57.5 -60 57.5 -165q0 -67 -23 -118t-60 -79q-71 -54 -158.5 -54t-145 60t-57.5 165q0 67 22.5 118t59.5 79q71 54 159 54t145.5 -60zM248 22q44 0 75 34q56 60 56 159.5t-34 155t-111 55.5q-57 -22 -86.5 -77.5t-29.5 -134t32 -135.5t98 -57zM274 674 l126 -167h-40l-110 93l-109 -93h-40l125 167h48z" />
<glyph unicode="&#xf5;" d="M413.5 404q57.5 -60 57.5 -165q0 -67 -23 -118t-60 -79q-71 -54 -158.5 -54t-145 60t-57.5 165q0 67 22.5 118t59.5 79q71 54 159 54t145.5 -60zM248 22q44 0 75 34q56 60 56 159.5t-34 155t-111 55.5q-57 -22 -86.5 -77.5t-29.5 -134t32 -135.5t98 -57zM234.5 552.5 q-50.5 20.5 -63.5 20.5t-24 -10t-28 -33l-27 15q27 65 102 89q22 0 72.5 -20.5t63.5 -20.5t24 10t28 33l27 -15q-27 -65 -102 -89q-22 0 -72.5 20.5z" />
<glyph unicode="&#xf6;" d="M413.5 404q57.5 -60 57.5 -165q0 -67 -23 -118t-60 -79q-71 -54 -158.5 -54t-145 60t-57.5 165q0 67 22.5 118t59.5 79q71 54 159 54t145.5 -60zM248 22q44 0 75 34q56 60 56 159.5t-34 155t-111 55.5q-57 -22 -86.5 -77.5t-29.5 -134t32 -135.5t98 -57zM160 541h-12 q-19 2 -36 19q-8 10 -10 27v4q0 21 14.5 35.5t35.5 14.5q5 0 10 -1q9 0 15 -6q10 -5 14 -12q5 -5 6 -10q4 -6 4 -10t1 -7v-4v-10q-2 -12 -11 -21q-2 -5 -5 -6q-10 -10 -26 -13zM299 591q0 21 14.5 35.5t35.5 14.5t35.5 -14.5t14.5 -35.5t-14.5 -35.5t-35.5 -14.5t-35.5 14.5 t-14.5 35.5z" />
<glyph unicode="&#xf7;" horiz-adv-x="564" d="M505 224h-446v58h446v-58zM282 388q-17 0 -33 12.5t-16 34.5t14.5 36.5t34.5 14.5t35 -15t15 -36t-16.5 -34t-33.5 -13zM282 20q-17 0 -33 12.5t-16 34.5t14.5 36.5t34.5 14.5t35 -15t15 -36t-16.5 -34t-33.5 -13z" />
<glyph unicode="&#xf8;" d="M186 451q40 13 81 13t78 -14l53 101h39l-61 -117q95 -58 95 -195q0 -67 -23 -118t-60 -79q-71 -54 -159 -54q-43 0 -80 15l-60 -115h-37l68 130q-93 60 -93 195q0 67 22.5 118t59.5 79t77 41zM248 22q44 0 75 34q56 60 56 162.5t-36 153.5l-169 -323q30 -27 74 -27z M147.5 348.5q-29.5 -55.5 -29.5 -136t33 -135.5l168 322q-35 27 -85 27q-57 -22 -86.5 -77.5z" />
<glyph unicode="&#xf9;" d="M397 134q0 -69 52 -109l-52 -37l-81 73q-41 -39 -73 -56t-75.5 -17t-80 33.5t-36.5 115.5v315h85v-320q0 -48 17.5 -72.5t61 -24.5t97.5 64v353h85v-318zM326 507h-40l-188 138l56 50z" />
<glyph unicode="&#xfa;" d="M397 134q0 -69 52 -109l-52 -37l-81 73q-41 -39 -73 -56t-75.5 -17t-80 33.5t-36.5 115.5v315h85v-320q0 -48 17.5 -72.5t61 -24.5t97.5 64v353h85v-318zM217 507h-40l172 188l56 -50z" />
<glyph unicode="&#xfb;" d="M397 134q0 -69 52 -109l-52 -37l-81 73q-41 -39 -73 -56t-75.5 -17t-80 33.5t-36.5 115.5v315h85v-320q0 -48 17.5 -72.5t61 -24.5t97.5 64v353h85v-318zM252 674l126 -167h-40l-110 93l-109 -93h-40l125 167h48z" />
<glyph unicode="&#xfc;" d="M397 134q0 -69 52 -109l-52 -37l-81 73q-41 -39 -73 -56t-75.5 -17t-80 33.5t-36.5 115.5v315h85v-320q0 -48 17.5 -72.5t61 -24.5t97.5 64v353h85v-318zM275 591q0 21 14.5 35.5t35.5 14.5t35.5 -14.5t14.5 -35.5t-14.5 -35.5t-35.5 -14.5t-35.5 14.5t-14.5 35.5z M128 541q-31 0 -44 25q0 1 -2 3q-4 12 -4 18v4q0 30 25 43q7 7 25 7q26 0 39 -19q11 -15 11 -31v-4q0 -17 -19 -36q-4 -2 -6 -4l-7 -3l-10 -3h-8z" />
<glyph unicode="&#xfd;" horiz-adv-x="441" d="M382 452h38l-171 -467q-33 -92 -99 -148t-145 -57l10 50q135 5 210 175l-203 447h89l153 -339zM257 507h-40l172 188l56 -50z" />
<glyph unicode="&#xfe;" d="M231.5 440.5q42.5 21.5 71.5 21.5t55.5 -10.5t54.5 -35t45.5 -75.5t17.5 -128.5t-50 -153.5t-132 -76q-65 0 -134 47v-242h-85v895h85v-295q29 31 71.5 52.5zM160 327v-268q59 -28 110.5 -28t83 49t31.5 129.5t-25.5 137t-63.5 68.5q-35 -4 -68.5 -24.5t-50.5 -39 t-17 -24.5z" />
<glyph unicode="&#xff;" horiz-adv-x="441" d="M382 452h38l-171 -467q-33 -92 -99 -148t-145 -57l10 50q135 5 210 175l-203 447h89l153 -339zM298 591q0 21 14.5 35.5t35.5 14.5t35.5 -14.5t14.5 -35.5t-14.5 -35.5t-35.5 -14.5t-35.5 14.5t-14.5 35.5zM159 541h-8q-25 0 -40 19l-6 9q-4 12 -4 18v4q0 13 3 18t3 7 q2 2 4 6q18 18 32 18q3 1 4 1h8q3 -1 5.5 -1t8.5 -2q21 -9 29 -29q3 -9 3 -18v-4q0 -1 -1 -5q-1 -11 -6 -16q-8 -20 -35 -25z" />
<glyph unicode="&#x131;" horiz-adv-x="233" d="M75 0v452h83v-452h-83z" />
<glyph unicode="&#x141;" horiz-adv-x="487" d="M90 0v251l-87 -55v49l87 55v362h98v-299l125 80v-49l-125 -80v-260q61 -18 98 -18l181 31l-12 -67h-365z" />
<glyph unicode="&#x142;" horiz-adv-x="234" d="M159 683v-234l65 44v-49l-65 -44v-400h-84v343l-65 -43v49l65 43v291h84z" />
<glyph unicode="&#x152;" horiz-adv-x="849" d="M343 0q-133 0 -221 83t-88 229q0 76 23.5 137t60.5 100t86 65q92 48 198 48h376l-10 -67l-161 31q-49 0 -108 -17v-243h197v-38h-197v-292l295 31l-10 -67h-441zM372 623q-111 0 -170 -80t-59 -210.5t62.5 -215.5t166.5 -85q20 0 30 1v587q-15 3 -30 3z" />
<glyph unicode="&#x153;" horiz-adv-x="791" d="M263 464q107 0 155 -92q66 92 181 92q73 0 122 -58t49 -161h-319q0 -108 48.5 -155.5t118 -47.5t128.5 27v-35q-80 -46 -157 -46q-126 0 -184 91q-60 -91 -180 -91q-85 0 -140.5 59.5t-55.5 164.5q0 67 22 118.5t58 79.5q71 54 154 54zM548 417q-35 -17 -60 -55t-33 -87 h234q-3 42 -19.5 72.5t-39.5 44.5q-43 25 -82 25zM243 31q56 0 92 59.5t36 137.5t-37.5 133t-106.5 55q-54 -21 -82 -75.5t-28 -116.5q0 -193 126 -193z" />
<glyph unicode="&#x160;" horiz-adv-x="556" d="M162 547q0 -44 34.5 -81.5t84 -66t98.5 -58t83.5 -72.5t34.5 -95q0 -82 -60.5 -134t-163.5 -52t-204 39v47q102 -51 173.5 -51t111.5 35t40 97q0 42 -33 76.5t-80 60t-94 52.5t-80 68.5t-33 100.5t52.5 110t156.5 51q68 0 172 -31l-10 -68q-135 58 -231 58 q-52 -25 -52 -86zM251 718l-126 167h40l110 -93l109 93h40l-125 -167h-48z" />
<glyph unicode="&#x161;" horiz-adv-x="372" d="M126.5 402.5q-16.5 -19.5 -16.5 -44t23.5 -47t57 -40t66.5 -36.5t56.5 -49t23.5 -67q0 -56 -45 -93.5t-122.5 -37.5t-141.5 36v38q68 -34 123 -34t80 22t25 50.5t-22.5 51t-55 39.5t-64.5 36t-54.5 49t-22.5 72.5t34.5 79t106.5 36.5t138 -26l-10 -66q-74 40 -137 50 q-26 0 -42.5 -19.5zM163 506l-126 167h40l110 -93l109 93h40l-125 -167h-48z" />
<glyph unicode="&#x178;" horiz-adv-x="557" d="M343 0h-97v246l-226 416h109l185 -380l173 380h50l-194 -411v-251zM364 761q0 21 14.5 35.5t35.5 14.5t35.5 -14.5t14.5 -35.5t-14.5 -35.5t-35.5 -14.5t-35.5 14.5t-14.5 35.5zM167 757v12q3 14 10 23l9 8q13 10 19 10.5t13 0.5q12 0 20 -5q10 -2 18.5 -14t9 -18t1.5 -9 v-8q0 -15 -11 -27l-2 -3l-6 -6q-4 -2 -6 -4l-7 -3l-10 -3h-16q-24 5 -33 21t-9 25z" />
<glyph unicode="&#x17d;" horiz-adv-x="571" d="M16 0v10l382 599q-59 17 -109 17l-206 -31l-10 67h468v-10l-394 -612l359 27l10 -67h-500zM277 718l-126 167h40l110 -93l109 93h40l-125 -167h-48z" />
<glyph unicode="&#x17e;" horiz-adv-x="444" d="M45 0v30l267 389l-246 -9l-10 42h347v-28l-266 -388l269 11l10 -47h-371zM219 506l-126 167h40l110 -93l109 93h40l-125 -167h-48z" />
<glyph unicode="&#x192;" d="M102 398h108l6 55q22 222 197 222q37 0 76 -12l-10 -65q-62 23 -104 31q-35 -14 -49.5 -50.5t-25.5 -125.5l-7 -55h132v-38h-137l-46 -354q-14 -105 -56.5 -150t-114.5 -45q-33 0 -74 15l12 39q34 -8 65 -8q79 0 91 110l41 393h-104v38z" />
<glyph unicode="&#x2c6;" horiz-adv-x="333" d="M190 674l126 -167h-40l-110 93l-109 -93h-40l125 167h48z" />
<glyph unicode="&#x2c7;" horiz-adv-x="333" d="M142 506l-126 167h40l110 -93l109 93h40l-125 -167h-48z" />
<glyph unicode="&#x2d8;" horiz-adv-x="333" d="M164 507q-58 0 -98 39t-40 113v5h29q16 -97 111 -97q54 0 78 31q13 17 18.5 29t15.5 37h29q-15 -157 -143 -157z" />
<glyph unicode="&#x2d9;" horiz-adv-x="238" d="M79.5 668q14.5 15 36 15t37 -15t15.5 -36t-15.5 -37t-36.5 -16t-36 15.5t-15 37t14.5 36.5z" />
<glyph unicode="&#x2da;" horiz-adv-x="333" d="M67 611q0 41 28.5 70.5t70 29.5t71 -29.5t29.5 -70.5t-29.5 -70t-71 -29t-70 29t-28.5 70zM213 657.5q-19 19.5 -48.5 19.5t-46.5 -21.5t-17 -44t16.5 -44t46 -21.5t49 19t19.5 46t-19 46.5z" />
<glyph unicode="&#x2db;" horiz-adv-x="333" d="M116 -75q0 -20 12.5 -30.5t32 -10.5t39 12.5t27.5 30.5l16 -7q-10 -35 -39.5 -60t-62.5 -25t-56 20t-23 48q0 61 56 97h44q-46 -36 -46 -75z" />
<glyph unicode="&#x2dc;" horiz-adv-x="333" d="M150.5 552.5q-50.5 20.5 -63.5 20.5t-24 -10t-28 -33l-27 15q27 65 102 89q22 0 72.5 -20.5t63.5 -20.5t24 10t28 33l27 -15q-27 -65 -102 -89q-22 0 -72.5 20.5z" />
<glyph unicode="&#x2dd;" horiz-adv-x="333" d="M35 507h-40l172 188l56 -50zM190 507h-40l172 188l56 -50z" />
<glyph unicode="&#x3c0;" horiz-adv-x="515" d="M174 0h-85v398h-50v54h436v-54h-50v-260q0 -68 51 -109l-51 -38q-61 34 -77 91q-8 30 -8 70v246h-166v-398z" />
<glyph unicode="&#x2013;" d="M0 250h500v-49h-500v49z" />
<glyph unicode="&#x2014;" horiz-adv-x="1000" d="M0 250h1000v-49h-1000v49z" />
<glyph unicode="&#x2018;" horiz-adv-x="224" d="M50 513q0 108 112 170l12 -19q-67 -53 -67 -119q23 0 42.5 -15t19.5 -40q-14 -21 -45 -37.5t-60 -19.5q-14 41 -14 80z" />
<glyph unicode="&#x2019;" horiz-adv-x="224" d="M174 597q0 -108 -112 -170l-12 19q67 53 67 119q-23 0 -42.5 15t-19.5 40q14 21 45 37.5t60 19.5q14 -41 14 -80z" />
<glyph unicode="&#x201a;" horiz-adv-x="224" d="M174 28q0 -108 -112 -170l-12 19q67 53 67 119q-23 0 -42.5 15t-19.5 40q14 21 45 37.5t60 19.5q14 -41 14 -80z" />
<glyph unicode="&#x201c;" horiz-adv-x="394" d="M50 513q0 108 112 170l12 -19q-67 -53 -67 -119q23 0 42.5 -15t19.5 -40q-14 -21 -45 -37.5t-60 -19.5q-14 41 -14 80zM220 513q0 108 112 170l12 -19q-67 -53 -67 -119q23 0 42.5 -15t19.5 -40q-14 -21 -45 -37.5t-60 -19.5q-14 41 -14 80z" />
<glyph unicode="&#x201d;" horiz-adv-x="394" d="M174 597q0 -108 -112 -170l-12 19q67 53 67 119q-23 0 -42.5 15t-19.5 40q14 21 45 37.5t60 19.5q14 -41 14 -80zM344 597q0 -108 -112 -170l-12 19q67 53 67 119q-23 0 -42.5 15t-19.5 40q14 21 45 37.5t60 19.5q14 -41 14 -80z" />
<glyph unicode="&#x201e;" horiz-adv-x="394" d="M174 28q0 -108 -112 -170l-12 19q67 53 67 119q-23 0 -42.5 15t-19.5 40q14 21 45 37.5t60 19.5q14 -41 14 -80zM344 28q0 -108 -112 -170l-12 19q67 53 67 119q-23 0 -42.5 15t-19.5 40q14 21 45 37.5t60 19.5q14 -41 14 -80z" />
<glyph unicode="&#x2020;" d="M442 481v-66h-58l-123 20l31 -118l-30 -466h-21l-32 466l30 118l-122 -20h-58v66h58l119 -20l-28 136v80q22 5 44.5 5t41.5 -5v-80l-29 -136l119 20h58z" />
<glyph unicode="&#x2021;" d="M58 45v66h58l123 -20l-31 171l31 173l-122 -20h-58v66h58l119 -20l-28 136v80q22 5 44.5 5t41.5 -5v-80l-29 -136l119 20h58v-66h-58l-123 20l31 -173l-31 -171l122 20h58v-66h-58l-119 20l28 -136v-80q-22 -5 -44.5 -5t-41.5 5v80l29 136l-119 -20h-58z" />
<glyph unicode="&#x2022;" horiz-adv-x="350" d="M310 331q0 -56 -39.5 -95.5t-95.5 -39.5t-95.5 39.5t-39.5 96t39.5 95.5t95.5 39t95.5 -39.5t39.5 -95.5z" />
<glyph unicode="&#x2026;" horiz-adv-x="750" d="M70 44q0 23 16 39.5t39 16.5t39.5 -16.5t16.5 -39.5t-16.5 -39t-39.5 -16t-39 16t-16 39zM320 44q0 23 16 39.5t39 16.5t39.5 -16.5t16.5 -39.5t-16.5 -39t-39.5 -16t-39 16t-16 39zM570 44q0 23 16 39.5t39 16.5t39.5 -16.5t16.5 -39.5t-16.5 -39t-39.5 -16t-39 16 t-16 39z" />
<glyph unicode="&#x2030;" horiz-adv-x="1149" d="M90 633q50 51 110 51t99 -50t39 -146t-49.5 -146.5t-110.5 -50.5t-99.5 49t-38.5 145.5t50 147.5zM242 592.5q-23 45.5 -57.5 45.5t-54.5 -41t-20 -107.5t22.5 -111t54.5 -44.5q78 0 78 151q0 62 -23 107.5zM511 332q50 51 110 51t99 -50t39 -146t-49.5 -146.5 t-110.5 -50.5t-99.5 49t-38.5 145.5t50 147.5zM663 291.5q-23 45.5 -57.5 45.5t-54.5 -41t-20 -107.5t22.5 -111t54.5 -44.5q78 0 78 151q0 62 -23 107.5zM861 332q50 51 110 51t99 -50t39 -146t-49.5 -146.5t-110.5 -50.5t-99.5 49t-38.5 145.5t50 147.5zM1013 291.5 q-23 45.5 -57.5 45.5t-54.5 -41t-20 -107.5t22.5 -111t54.5 -44.5q78 0 78 151q0 62 -23 107.5zM599 677l-350 -691h-49l353 691h46z" />
<glyph unicode="&#x2039;" horiz-adv-x="333" d="M63 227l211 189q10 0 10 -11l-128 -180l129 -181q0 -11 -11 -11z" />
<glyph unicode="&#x203a;" horiz-adv-x="333" d="M270 221l-211 -189q-10 0 -10 11l128 180l-129 181q0 11 11 11z" />
<glyph unicode="&#x2044;" horiz-adv-x="799" d="M599 677l-350 -691h-49l353 691h46z" />
<glyph unicode="&#x20ac;" d="M70 326l1 34h-53v38h57q10 72 42 129t73 88q84 62 158 62t122 -30l-10 -66q-105 55 -149 55q-55 -19 -96 -81.5t-50 -156.5h216v-38h-218v-8q0 -43 3 -79h215v-39h-210q18 -110 66.5 -161.5t115.5 -51.5q85 0 129 54v-55q-63 -33 -131 -33t-120 24t-95.5 81.5 t-58.5 141.5h-59v39h54q-2 34 -2 53z" />
<glyph unicode="&#x2122;" horiz-adv-x="980" d="M249 280h-75v392q-15 4 -34 4l-94 -23l-5 62h342l-4 -62l-94 23q-20 0 -36 -4v-392zM647 401l137 314h76l23 -435h-78l-18 341l-152 -341h-16l-151 325l-16 -325h-42l24 435h70z" />
<glyph unicode="&#x2126;" horiz-adv-x="725" d="M651 0h-192v131q47 36 71.5 102.5t24.5 138t-18.5 129t-63 95t-110 37.5t-111.5 -43q-82 -79 -82 -222q0 -180 97 -242v-126h-192v64l135 -13v52q-68 31 -107 94.5t-39 145.5t20.5 138t53.5 91t76 59q78 43 175 43q118 0 195 -75t77 -210q0 -184 -145 -266v-72l135 13 v-64z" />
<glyph unicode="&#x2202;" d="M227.5 455q35.5 9 67.5 9t65 -10q-41 136 -124 168q-53 0 -154 -32l-20 64q72 23 135 23t117.5 -39t87.5 -99q69 -125 69 -255q0 -64 -19 -116.5t-49 -85t-69 -54.5q-70 -40 -145 -40t-123.5 47.5t-48.5 132.5q0 64 19 116.5t49 85t68.5 54.5t74 31zM134.5 61.5 q25.5 -39.5 74.5 -39.5t82.5 28.5t51.5 71.5q36 86 36 161q0 143 -121 143q-74 -27 -111.5 -100t-37.5 -149t25.5 -115.5z" />
<glyph unicode="&#x2206;" horiz-adv-x="629" d="M589 0h-549l267 678h15zM287 502l-172 -448h344z" />
<glyph unicode="&#x220f;" horiz-adv-x="627" d="M90 662h447v-762h-97v708h-253v-708h-97v762z" />
<glyph unicode="&#x2211;" horiz-adv-x="600" d="M520 -100h-439l233 367l-223 395h419v-54h-283l175 -308l-221 -346h339v-54z" />
<glyph unicode="&#x2212;" horiz-adv-x="564" d="M505 224h-446v58h446v-58z" />
<glyph unicode="&#x221a;" horiz-adv-x="550" d="M636 683v-54h-143l-233 -729h-32l-178 452h109l104 -276l194 607h179z" />
<glyph unicode="&#x221e;" horiz-adv-x="869" d="M495 376q59 75 146.5 75t132.5 -59t45 -139t-45 -139t-126 -59q-96 0 -154 74l-60 75l-59 -75q-58 -74 -154 -74q-81 0 -126 59t-45 139t45 139t132.5 59t146.5 -75l60 -75zM328 339q-45 54 -102.5 54t-87.5 -41.5t-30 -98.5t30 -98.5t90 -41.5t101 52l71 88zM540 165 q41 -52 101 -52t90 41.5t30 98.5t-30 98.5t-87.5 41.5t-102.5 -54l-72 -86z" />
<glyph unicode="&#x222b;" horiz-adv-x="339" d="M212 521v-429q0 -104 -46 -154.5t-120 -50.5q-33 0 -76 15l8 39q34 -8 66 -8q46 0 64.5 33t18.5 77v429q0 104 46 154.5t120 50.5q33 0 76 -15l-8 -39q-34 8 -66 8q-46 0 -64.5 -33t-18.5 -77z" />
<glyph unicode="&#x2248;" horiz-adv-x="564" d="M505 312q-49 24 -96 24t-125 -26t-130 -26t-95 28v59q43 -27 90.5 -27t125.5 25.5t127.5 25.5t102.5 -24v-59zM505 135q-48 27 -96 27t-125 -27.5t-129.5 -27.5t-95.5 28v59q44 -28 91.5 -28t124 27.5t128 27.5t102.5 -27v-59z" />
<glyph unicode="&#x2260;" horiz-adv-x="564" d="M505 371v-58h-174l-39 -119h213v-59h-233l-61 -187h-60l62 187h-154v59h173l39 119h-212v58h232l63 190h59l-63 -190h155z" />
<glyph unicode="&#x2264;" horiz-adv-x="564" d="M507 158v-60l-450 204v54l450 204v-60l-377 -171zM505 0h-446v58h446v-58z" />
<glyph unicode="&#x2265;" horiz-adv-x="564" d="M57 158l377 171l-377 171v60l450 -204v-54l-450 -204v60zM505 0h-446v58h446v-58z" />
<glyph unicode="&#x25ca;" horiz-adv-x="589" d="M302 678l237 -439l-237 -439h-15l-237 439l237 439h15zM294 593l-187 -354l187 -354l188 354z" />
<glyph unicode="&#x25fc;" horiz-adv-x="450" d="M0 450h450v-450h-450v450z" />
<glyph unicode="&#xf8ff;" horiz-adv-x="923" d="M589 -89l-23 1q-14 0 -31.5 -12t-26.5 -12l-46 10q-8 0 -23.5 -6t-24 -6t-24.5 12.5t-29 12.5l-24 -2q-15 0 -33 17l-18 19q-12 6 -25 7t-22 6.5t-16 23t-12.5 22t-19.5 10t-20 14.5q-5 9 -7 23.5t-6 21t-14 13.5q-22 18 -22 38l3 25q0 9 -12.5 26.5t-12.5 26.5t6 23.5 t6 23t-6 21.5t-6 22t12.5 29.5t12.5 29.5l-1 25q0 15 16.5 29.5t19 19.5t4.5 21t6 22t19.5 12t20.5 11t12 20.5t13.5 21t25.5 9.5t24.5 7t20.5 20t29 18l26 -2q13 0 28.5 11.5t26.5 11.5l44 -12l45 12q13 0 29 -12.5t28 -12.5l28 3q16 0 29 -16.5t19.5 -20t21.5 -6.5 t22.5 -8t12.5 -19t10.5 -19t25.5 -15.5t24.5 -18.5t5 -24t3 -20.5t19.5 -19t17 -30.5l-1 -25q0 -13 12 -31.5t12 -27.5t-5.5 -22t-5.5 -20t5.5 -21.5t5 -22.5t-12.5 -20.5t-12 -26.5l2 -32q0 -16 -16 -29t-18.5 -18t-7 -24t-10 -25.5t-18 -12t-17.5 -10.5t-14 -21.5 t-16 -21.5t-24.5 -9.5t-22.5 -7.5t-18.5 -16.5t-28.5 -13.5zM462 -6l33 -7q6 0 17 7q15 10 27 10l15 -1q12 0 21 10t12.5 12t16.5 5.5t18.5 7.5t12 15.5t10 15t12.5 7.5t13 8.5t7 18.5t5.5 18t13.5 13t11 23l-1 20q0 11 8.5 20.5t9.5 15.5l-8 32l8 28q0 8 -9 22t-9 23l1 17 q0 12 -12 22t-14 14t-2.5 15.5t-3.5 17t-17.5 13t-18.5 11.5t-8 14t-9 14t-16 6t-16 4.5t-14 14.5t-21 12l-20 -2q-9 0 -20 9t-21 9l-33 -9l-32 9q-8 0 -20 -8.5t-22 -8.5l-17 1q-11 0 -21.5 -12.5t-15 -15t-17.5 -5t-18 -6.5t-10 -15t-9 -15t-14.5 -8t-14.5 -9 q-2 -4 -4 -15.5t-4 -15.5t-14 -14.5t-12 -21.5l1 -16q0 -8 -8.5 -23t-8.5 -23l8 -30l-8 -33q0 -8 8.5 -20.5t8.5 -20.5l-2 -16q0 -11 12.5 -22.5t14.5 -15.5t3.5 -14.5t5.5 -17t14 -10.5t14 -7.5t9.5 -16.5t11.5 -17t15.5 -4t15.5 -3t17.5 -15.5t22.5 -12.5l15 1 q10 0 22 -8.5t18 -9.5zM462 417q70 0 120 -49.5t50 -120.5t-50 -120.5t-120 -49.5t-120 49.5t-50 120.5t50 120.5t120 49.5zM505 292h52v68h-191v-68h54v-175h85v175z" />
</font>
</defs>
</svg>
